<?xml version="1.0" encoding="utf-8"?>
<!-- Generator: Adobe Illustrator 24.2.3, SVG Export Plug-In . SVG Version: 6.00 Build 0)  -->
<svg version="1.1" id="Layer_1" xmlns="http://www.w3.org/2000/svg" xmlns:xlink="http://www.w3.org/1999/xlink" x="0px" y="0px"
	 viewBox="0 0 200 200" style="enable-background:new 0 0 200 200;" xml:space="preserve">
<style type="text/css">
	.st0{fill:#FBD099;}
	.st1{fill:#803D26;}
	.st2{fill:#F2F2F2;}
	.st3{fill:#4DBFD9;}
	.st4{fill:#FFFFFF;}
	.st5{fill:#7F8C8D;}
	.st6{fill:#2C3E50;}
	.st7{fill:#1C90BF;}
	.st8{fill:#BDC3C7;}
</style>
<g>
	<g>
		<g>
			<path class="st0" d="M140,137.43l-12.08-2.23c-0.05,0-0.05,0-0.11,0c-6.51-0.05-11.84-5.27-12.02-11.78v-8.86
				C130.03,105.76,140,85.18,140,61.2c0-32.02-17.71-48.32-39.58-48.32l0,0h0c-21.87,0-39.58,16.3-39.58,48.32
				c0,23.98,9.97,44.57,24.22,53.36v8.86c-0.18,6.5-5.51,11.72-12.02,11.78c-0.06,0-0.06,0-0.12,0l-12.08,2.23
				c-26.75,8.27-31.67,28.09-31.67,50.9v8.45h71.25h0h71.25v-8.45C171.66,165.52,166.74,145.7,140,137.43z"/>
		</g>
	</g>
	<g>
		<path class="st1" d="M124.34,2.57c-14.66-4.4-23.92,1.83-23.92,1.83C72.47,1.84,58.73,20.9,55.8,47.65
			C52.87,74.4,66.09,91.17,66.09,91.17c1.46-6.14,1.33-11.6,1.1-16.74c0.61,1,1.32,2.15,2.17,3.49c0,0-1.61-9.18,0.32-21.57
			c1.27,2.39,2.86,4.25,2.86,4.25c1.28-9.71,3.42-15.16,3.42-15.16c4.59-4.69,10.53-8.48,16.57-11.51l-2.4,6.63
			c8.3-1.95,29.09-16.06,30.54-16.37c28.95,22.36,12.36,69.48,12.36,69.48C163.59,63.5,139,6.97,124.34,2.57z"/>
	</g>
	<g>
		<path class="st1" d="M131.74,96.26c0,0-2.43,24.85-31.32,24.95c0,0-21.96,1.13-30.86-24.09c0,0,8.58-5.25,10.92,5.27
			c2.16,9.71,37.47,8.8,41.38-0.49C121.86,101.9,123.05,92.82,131.74,96.26z"/>
	</g>
	<g>
		<path class="st0" d="M142.1,77.92c0,5.67-2.56,10.28-5.72,10.28c-3.15,0-5.71-4.61-5.71-10.28c0-5.68,2.56-10.28,5.71-10.28
			C139.54,67.64,142.1,72.24,142.1,77.92z"/>
	</g>
	<g>
		<path class="st0" d="M70.16,77.92c0,5.67-2.55,10.28-5.71,10.28c-3.16,0-5.71-4.61-5.71-10.28c0-5.68,2.55-10.28,5.71-10.28
			C67.61,67.64,70.16,72.24,70.16,77.92z"/>
	</g>
	<g>
		<g>
			<g>
				<path class="st2" d="M174.68,190.67v8.8H26.14v-8.8c0-23.78,5.14-44.43,33.01-53.06l12.61-2.33c0.06,0,0.06,0,0.1,0
					c2.41-0.02,4.67-0.72,6.57-1.93h43.98c1.9,1.21,4.16,1.91,6.56,1.93c0.05,0,0.05,0,0.1,0l12.61,2.33
					C169.55,146.24,174.68,166.89,174.68,190.67z"/>
			</g>
		</g>
	</g>
	<g>
		<polygon class="st3" points="79.32,133.35 102.15,197.44 121.23,132.69 		"/>
	</g>
	<g>
		<g>
			<path class="st4" d="M156.14,180.23c0,2.65-2.15,4.81-4.8,4.81h-27.84c-2.65,0-4.81-2.15-4.81-4.81v-13.3
				c0-2.66,2.15-4.81,4.81-4.81h27.84c2.65,0,4.8,2.15,4.8,4.81V180.23z"/>
		</g>
		<g>
			<path class="st5" d="M157.26,161.75c0,1.13-0.92,2.05-2.05,2.05h-35.58c-1.13,0-2.04-0.92-2.04-2.05l0,0
				c0-1.13,0.91-2.05,2.04-2.05h35.58C156.34,159.7,157.26,160.62,157.26,161.75L157.26,161.75z"/>
		</g>
		<g>
			<path class="st6" d="M143.88,161.13c0,0.34-0.28,0.62-0.63,0.62H131.6c-0.34,0-0.62-0.28-0.62-0.62v-6.03
				c0-0.34,0.28-0.63,0.62-0.63h11.65c0.35,0,0.63,0.29,0.63,0.63V161.13z"/>
		</g>
		<g>
			<g>
				<g>
					<rect x="128.31" y="168.27" class="st7" width="2.92" height="10.6"/>
				</g>
			</g>
			<g>
				<g>
					<rect x="124.47" y="172.11" class="st7" width="10.6" height="2.92"/>
				</g>
			</g>
		</g>
		<g>
			<path class="st8" d="M152.23,170.12c0,0.26-0.21,0.47-0.47,0.47h-12.18c-0.26,0-0.47-0.21-0.47-0.47v-0.82
				c0-0.26,0.21-0.47,0.47-0.47h12.18c0.26,0,0.47,0.21,0.47,0.47V170.12z"/>
		</g>
		<g>
			<path class="st8" d="M152.23,173.94c0,0.26-0.21,0.47-0.47,0.47h-12.18c-0.26,0-0.47-0.21-0.47-0.47v-0.82
				c0-0.26,0.21-0.47,0.47-0.47h12.18c0.26,0,0.47,0.21,0.47,0.47V173.94z"/>
		</g>
		<g>
			<path class="st8" d="M152.23,177.77c0,0.26-0.21,0.47-0.47,0.47h-12.18c-0.26,0-0.47-0.21-0.47-0.47v-0.83
				c0-0.26,0.21-0.47,0.47-0.47h12.18c0.26,0,0.47,0.21,0.47,0.47V177.77z"/>
		</g>
	</g>
	<g>
		<path class="st7" d="M79.67,174.41c0,1.42-1.15,2.57-2.58,2.57H51.81c-1.43,0-2.58-1.15-2.58-2.57l0,0c0-1.42,1.15-2.58,2.58-2.58
			h25.28C78.52,171.84,79.67,172.99,79.67,174.41L79.67,174.41z"/>
	</g>
</g>
</svg>
