<svg xmlns="http://www.w3.org/2000/svg" width="72.155" height="96.296" viewBox="0 0 72.155 96.296">
  <g id="Group_371" data-name="Group 371" transform="translate(-46.893 -33.223)">
    <g id="Group_12" data-name="Group 12" transform="translate(63.425 72.257)">
      <path id="Path_1" data-name="Path 1" d="M57.476,78.446c0,11.174,8.372,20.235,18.7,20.235s18.7-9.061,18.7-20.235S86.5,58.21,76.177,58.21,57.476,67.272,57.476,78.446Z" transform="translate(-57.476 -58.21)" fill="#b85a15"/>
    </g>
    <g id="Group_14" data-name="Group 14" transform="translate(48.326 39.048)">
      <g id="Group_13" data-name="Group 13">
        <path id="Path_2" data-name="Path 2" d="M116.833,121.939v4.09H47.81v-4.09c0-11.051,2.389-20.646,15.339-24.653L69.006,96.2h.047A5.885,5.885,0,0,0,74.875,90.5V86.2c-6.894-4.262-11.726-14.228-11.726-25.851,0-15.487,8.558-23.383,19.133-23.4h.045c10.585,0,19.168,7.9,19.168,23.4,0,11.623-4.832,21.589-11.727,25.851v4.3A5.887,5.887,0,0,0,95.591,96.2h.047l5.858,1.083C114.444,101.293,116.833,110.888,116.833,121.939Z" transform="translate(-47.81 -36.952)" fill="#fbd099"/>
      </g>
    </g>
    <g id="Group_16" data-name="Group 16" transform="translate(46.893 97.403)">
      <g id="Group_15" data-name="Group 15">
        <path id="Path_3" data-name="Path 3" d="M119.048,102.15v4.274H46.893V102.15c0-11.554,2.5-21.585,16.033-25.773l6.124-1.133H69.1a6.071,6.071,0,0,0,3.192-.937H93.653a6.065,6.065,0,0,0,3.19.937h.048l6.125,1.133C116.552,80.565,119.048,90.6,119.048,102.15Z" transform="translate(-46.893 -74.307)" fill="rgba(7,125,114,0.05)"/>
      </g>
    </g>
    <g id="Group_17" data-name="Group 17" transform="translate(82.632 127.612)">
      <path id="Path_4" data-name="Path 4" d="M70.11,94.157h-.339l.165-.513Z" transform="translate(-69.771 -93.644)" fill="#fff"/>
    </g>
    <g id="Group_18" data-name="Group 18" transform="translate(82.632 127.612)">
      <path id="Path_5" data-name="Path 5" d="M70.11,94.157h-.339l.165-.513Z" transform="translate(-69.771 -93.644)" fill="#fff"/>
    </g>
    <g id="Group_19" data-name="Group 19" transform="translate(73.113 96.762)">
      <path id="Path_6" data-name="Path 6" d="M63.677,73.9l9.858,31.362L82.776,73.9Z" transform="translate(-63.677 -73.896)" fill="#d3362d"/>
    </g>
    <g id="Group_20" data-name="Group 20" transform="translate(54.356 113.609)">
      <path id="Rectangle_18" data-name="Rectangle 18" d="M1.492,0H16.65a1.49,1.49,0,0,1,1.49,1.49V9.611A1.492,1.492,0,0,1,16.648,11.1H1.491A1.491,1.491,0,0,1,0,9.612V1.492A1.492,1.492,0,0,1,1.492,0Z" transform="translate(0 0)" fill="#fff"/>
    </g>
    <g id="Group_21" data-name="Group 21" transform="translate(53.818 112.444)">
      <path id="Path_7" data-name="Path 7" d="M70.541,84.925a.991.991,0,0,1-.99.99H52.316a.992.992,0,0,1-.99-.99h0a.992.992,0,0,1,.99-.99H69.55a.991.991,0,0,1,.99.99Z" transform="translate(-51.326 -83.935)" fill="#999"/>
    </g>
    <g id="Group_22" data-name="Group 22" transform="translate(60.301 109.906)">
      <path id="Rectangle_19" data-name="Rectangle 19" d="M.194,0h5.86a.194.194,0,0,1,.194.194v3.14a.194.194,0,0,1-.194.194H.193A.193.193,0,0,1,0,3.335V.194A.194.194,0,0,1,.194,0Z" transform="translate(0 0)" fill="#333"/>
    </g>
    <g id="Group_27" data-name="Group 27" transform="translate(57.149 116.593)">
      <g id="Group_24" data-name="Group 24" transform="translate(1.86 0)">
        <g id="Group_23" data-name="Group 23">
          <rect id="Rectangle_20" data-name="Rectangle 20" width="1.414" height="5.135" fill="#1c90bf"/>
        </g>
      </g>
      <g id="Group_26" data-name="Group 26" transform="translate(0 1.86)">
        <g id="Group_25" data-name="Group 25">
          <rect id="Rectangle_21" data-name="Rectangle 21" width="5.135" height="1.416" fill="#1c90bf"/>
        </g>
      </g>
    </g>
    <g id="Group_28" data-name="Group 28" transform="translate(64.243 116.86)">
      <path id="Rectangle_22" data-name="Rectangle 22" d="M.146,0H6.207a.147.147,0,0,1,.147.147V.71a.146.146,0,0,1-.146.146H.147A.147.147,0,0,1,0,.709V.146A.146.146,0,0,1,.146,0Z" fill="#bdc3c7"/>
    </g>
    <g id="Group_29" data-name="Group 29" transform="translate(64.243 118.712)">
      <path id="Rectangle_23" data-name="Rectangle 23" d="M.147,0H6.207a.147.147,0,0,1,.147.147V.71a.146.146,0,0,1-.146.146H.147A.147.147,0,0,1,0,.709V.147A.147.147,0,0,1,.147,0Z" fill="#bdc3c7"/>
    </g>
    <g id="Group_30" data-name="Group 30" transform="translate(64.243 120.564)">
      <path id="Rectangle_24" data-name="Rectangle 24" d="M.146,0H6.207a.147.147,0,0,1,.147.147V.709a.146.146,0,0,1-.146.146H.147A.147.147,0,0,1,0,.708V.146A.146.146,0,0,1,.146,0Z" fill="#bdc3c7"/>
    </g>
    <g id="Group_32" data-name="Group 32" transform="translate(75.368 91.628)">
      <g id="Group_31" data-name="Group 31" transform="translate(0 0)">
        <path id="Path_8" data-name="Path 8" d="M65.143,70.61v.045h-.022A.07.07,0,0,1,65.143,70.61Z" transform="translate(-65.121 -70.61)" fill="#fbd099"/>
      </g>
    </g>
    <g id="Group_34" data-name="Group 34" transform="translate(75.503 91.504)">
      <g id="Group_33" data-name="Group 33">
        <path id="Path_9" data-name="Path 9" d="M65.229,70.531v.047h-.022A.078.078,0,0,1,65.229,70.531Z" transform="translate(-65.207 -70.531)" fill="#fff"/>
      </g>
    </g>
    <g id="Group_36" data-name="Group 36" transform="translate(71.211 97.333)">
      <g id="Group_35" data-name="Group 35" transform="translate(0 0)">
        <path id="Path_10" data-name="Path 10" d="M62.46,74.973l1.479-.711A4.813,4.813,0,0,1,62.46,74.973Z" transform="translate(-62.46 -74.262)" fill="#fff"/>
      </g>
    </g>
    <g id="Group_38" data-name="Group 38" transform="translate(92.886 97.333)">
      <g id="Group_37" data-name="Group 37" transform="translate(0 0)">
        <path id="Path_11" data-name="Path 11" d="M76.362,74.262l.03.028c-.03.028-.03.056-.056.083Z" transform="translate(-76.335 -74.262)" fill="#fff"/>
      </g>
    </g>
    <g id="Group_39" data-name="Group 39" transform="translate(93.455 114.128)">
      <path id="Path_12" data-name="Path 12" d="M91.44,86.26a1.247,1.247,0,0,1-1.248,1.247H77.947A1.248,1.248,0,0,1,76.7,86.26h0a1.246,1.246,0,0,1,1.248-1.247H90.191A1.245,1.245,0,0,1,91.44,86.26Z" transform="translate(-76.699 -85.013)" fill="#1c90bf"/>
    </g>
    <g id="Group_40" data-name="Group 40" transform="translate(47.754 33.223)">
      <path id="Path_13" data-name="Path 13" d="M110.4,105.217c-3.576,2.6-8.034.584-11.587-2.051a32.608,32.608,0,0,1-3.645-3.143c-1.539-1.514-2.5-2.688-2.5-2.688s.081-.269.209-.77c.152-.594.384-1.526.651-2.713,1.8-7.93,5.113-27.018-3.552-31.326C78.947,57.065,75.08,45.747,75.08,45.747c-16.814,21.135-3.83,37.113-4.612,52.414,0,0-11.076,9.782-18.179,4.635s-4.307-15.339-4.307-15.339c0,.048.009.07.009.108a.652.652,0,0,0,.023-.108S49.729,94.9,54.049,94.9c12.5.025,5.115-18.037,3.984-22.636-1.422-5.744-3.913-42.135,24.5-38.828s24.292,31.465,22.72,38.828c-1.572,7.345-7.383,23.383,1.723,24.242,6.347.594,7.744-6.613,7.744-6.613S117.5,100.071,110.4,105.217Z" transform="translate(-47.444 -33.223)" fill="#e8721b"/>
    </g>
  </g>
</svg>
