<svg xmlns="http://www.w3.org/2000/svg" width="87.603" height="65.692" viewBox="0 0 87.603 65.692">
  <g id="Group_372" data-name="Group 372" transform="translate(-142.605 -265.114)">
    <g id="Group_42" data-name="Group 42" transform="translate(145.797 265.114)">
      <path id="Path_14" data-name="Path 14" d="M147.81,265.114h31.464c1.616,0,2.014,1.479,2.927,2.928l1.382,2.12h39.594a2.927,2.927,0,0,1,2.926,2.926v38.295a2.926,2.926,0,0,1-2.926,2.927H147.81a2.925,2.925,0,0,1-2.926-2.927V268.042A2.927,2.927,0,0,1,147.81,265.114Z" transform="translate(-144.884 -265.114)" fill="#e8721b"/>
    </g>
    <g id="Group_43" data-name="Group 43" transform="translate(147.976 272.743)">
      <path id="Rectangle_25" data-name="Rectangle 25" d="M2.361,0h72.67a2.36,2.36,0,0,1,2.36,2.36V32.895a2.359,2.359,0,0,1-2.359,2.359H2.36A2.36,2.36,0,0,1,0,32.894V2.361A2.361,2.361,0,0,1,2.361,0Z" fill="#fff"/>
    </g>
    <g id="Group_44" data-name="Group 44" transform="translate(152.603 275.839)">
      <path id="Path_15" data-name="Path 15" d="M153.689,299.232a1.972,1.972,0,0,1-1.972,1.973h0a1.974,1.974,0,0,1-1.973-1.973V274.747a1.974,1.974,0,0,1,1.973-1.975h0a1.973,1.973,0,0,1,1.972,1.975Z" transform="translate(-149.744 -272.772)" fill="#bdc3c7"/>
    </g>
    <g id="Group_45" data-name="Group 45" transform="translate(160.077 275.839)">
      <path id="Path_16" data-name="Path 16" d="M156.709,283.7a.814.814,0,0,1-.814.814h0a.814.814,0,0,1-.815-.814V273.586a.814.814,0,0,1,.815-.814h0a.814.814,0,0,1,.814.814Z" transform="translate(-155.08 -272.772)" fill="#bdc3c7"/>
    </g>
    <g id="Group_46" data-name="Group 46" transform="translate(164.655 275.839)">
      <path id="Path_17" data-name="Path 17" d="M159.976,283.7a.814.814,0,0,1-.814.814h0a.813.813,0,0,1-.814-.814V273.586a.813.813,0,0,1,.814-.814h0a.814.814,0,0,1,.814.814Z" transform="translate(-158.349 -272.772)" fill="#bdc3c7"/>
    </g>
    <g id="Group_47" data-name="Group 47" transform="translate(169.233 275.839)">
      <path id="Path_18" data-name="Path 18" d="M163.245,283.7a.814.814,0,0,1-.814.814h0a.814.814,0,0,1-.814-.814V273.586a.814.814,0,0,1,.814-.814h0a.814.814,0,0,1,.814.814Z" transform="translate(-161.618 -272.772)" fill="#bdc3c7"/>
    </g>
    <g id="Group_48" data-name="Group 48" transform="translate(173.812 275.839)">
      <path id="Path_19" data-name="Path 19" d="M166.513,283.7a.813.813,0,0,1-.814.814h0a.814.814,0,0,1-.812-.814V273.586a.814.814,0,0,1,.812-.814h0a.814.814,0,0,1,.814.814Z" transform="translate(-164.887 -272.772)" fill="#bdc3c7"/>
    </g>
    <g id="Group_49" data-name="Group 49" transform="translate(197.441 275.839)">
      <path id="Path_20" data-name="Path 20" d="M182.822,279.912a.533.533,0,0,1-.532.531h0a.532.532,0,0,1-.531-.531V273.3a.531.531,0,0,1,.531-.531h0a.532.532,0,0,1,.532.531Z" transform="translate(-181.759 -272.772)" fill="#bdc3c7"/>
    </g>
    <g id="Group_50" data-name="Group 50" transform="translate(200.528 275.839)">
      <path id="Path_21" data-name="Path 21" d="M185.027,279.912a.535.535,0,0,1-.534.531h0a.532.532,0,0,1-.531-.531V273.3a.531.531,0,0,1,.531-.531h0a.534.534,0,0,1,.534.531Z" transform="translate(-183.963 -272.772)" fill="#bdc3c7"/>
    </g>
    <g id="Group_51" data-name="Group 51" transform="translate(203.613 275.839)">
      <path id="Path_22" data-name="Path 22" d="M187.23,279.912a.533.533,0,0,1-.531.531h0a.533.533,0,0,1-.534-.531V273.3a.532.532,0,0,1,.534-.531h0a.532.532,0,0,1,.531.531Z" transform="translate(-186.166 -272.772)" fill="#bdc3c7"/>
    </g>
    <g id="Group_52" data-name="Group 52" transform="translate(206.7 275.839)">
      <path id="Path_23" data-name="Path 23" d="M189.433,279.912a.533.533,0,0,1-.532.531h0a.532.532,0,0,1-.531-.531V273.3a.531.531,0,0,1,.531-.531h0a.533.533,0,0,1,.532.531Z" transform="translate(-188.37 -272.772)" fill="#bdc3c7"/>
    </g>
    <g id="Group_53" data-name="Group 53" transform="translate(209.787 275.839)">
      <path id="Path_24" data-name="Path 24" d="M191.637,279.912a.533.533,0,0,1-.531.531h0a.533.533,0,0,1-.532-.531V273.3a.532.532,0,0,1,.532-.531h0a.532.532,0,0,1,.531.531Z" transform="translate(-190.574 -272.772)" fill="#bdc3c7"/>
    </g>
    <g id="Group_54" data-name="Group 54" transform="translate(212.874 275.839)">
      <path id="Path_25" data-name="Path 25" d="M193.841,279.912a.533.533,0,0,1-.531.531h0a.533.533,0,0,1-.532-.531V273.3a.532.532,0,0,1,.532-.531h0a.532.532,0,0,1,.531.531Z" transform="translate(-192.778 -272.772)" fill="#bdc3c7"/>
    </g>
    <g id="Group_55" data-name="Group 55" transform="translate(215.959 275.839)">
      <path id="Path_26" data-name="Path 26" d="M196.045,279.912a.533.533,0,0,1-.532.531h0a.533.533,0,0,1-.532-.531V273.3a.532.532,0,0,1,.532-.531h0a.533.533,0,0,1,.532.531Z" transform="translate(-194.981 -272.772)" fill="#bdc3c7"/>
    </g>
    <g id="Group_56" data-name="Group 56" transform="translate(142.605 277.743)">
      <path id="Path_27" data-name="Path 27" d="M227.053,274.131H193.115c-1.744,0-2.172,1.6-3.158,3.157l-1.487,2.288h-42.71a3.154,3.154,0,0,0-3.154,3.155v41.307a3.156,3.156,0,0,0,3.154,3.155h81.294a3.156,3.156,0,0,0,3.155-3.155V277.288A3.157,3.157,0,0,0,227.053,274.131Z" transform="translate(-142.605 -274.131)" fill="#f0851d"/>
    </g>
    <g id="Group_57" data-name="Group 57" transform="translate(169.572 287.578)">
      <path id="Path_28" data-name="Path 28" d="M197.7,299.074a17.918,17.918,0,1,1-17.917-17.92A17.915,17.915,0,0,1,197.7,299.074Z" transform="translate(-161.86 -281.154)" fill="#fff"/>
    </g>
    <g id="Group_58" data-name="Group 58" transform="translate(176.737 294.742)">
      <path id="Path_29" data-name="Path 29" d="M187.053,293.028h-5.326V287.7a1.433,1.433,0,0,0-1.429-1.428h-5.137a1.432,1.432,0,0,0-1.431,1.428v5.33h-5.322a1.426,1.426,0,0,0-1.431,1.43v5.133a1.432,1.432,0,0,0,1.431,1.438h5.322v5.315a1.433,1.433,0,0,0,1.431,1.437H180.3a1.434,1.434,0,0,0,1.429-1.437v-5.315h5.326a1.433,1.433,0,0,0,1.43-1.438v-5.133A1.428,1.428,0,0,0,187.053,293.028Z" transform="translate(-166.976 -286.269)" fill="#15a0c9"/>
    </g>
  </g>
</svg>
