<svg xmlns="http://www.w3.org/2000/svg" width="93.368" height="84.063" viewBox="0 0 93.368 84.063">
  <g id="Group_373" data-name="Group 373" transform="translate(-37.173 -356.702)">
    <g id="Group_112" data-name="Group 112" transform="translate(47.359 356.702)">
      <path id="Path_53" data-name="Path 53" d="M116.8,377.117l-7.135-4.079-.859-.494-2.35-1.343-.859-.5-3.348-1.909-.859-.494-2.35-1.352-.871-.494-2.35-1.343-.861-.492-2.349-1.344-.872-.5-2.35-1.344-.859-.492-7.176-4.1a1.074,1.074,0,0,0-1.049,0l-7.176,4.1-.859.492-2.35,1.344-.871.5-2.35,1.344-.861.492-2.35,1.343-.871.494-2.35,1.352-.859.494-3.348,1.909-.859.5-2.35,1.343-.859.494-7.135,4.079a1.053,1.053,0,1,0,1.05,1.825l6.085-3.484.859-.491,2.35-1.343.859-.494,3.348-1.909.859-.491,2.35-1.356.871-.492,2.35-1.344.861-.491,2.35-1.344.871-.5,2.35-1.343.859-.494,7.7-4.406,7.7,4.406.859.494,2.35,1.343.872.5,2.349,1.344.861.491,2.35,1.344.871.492,2.35,1.356.859.491,3.348,1.909.859.494,2.35,1.343.859.491,6.086,3.484a1.052,1.052,0,0,0,1.049-1.825Z" transform="translate(-44.333 -356.702)" fill="#e8721b"/>
    </g>
    <g id="Group_113" data-name="Group 113" transform="translate(81.661 357.752)">
      <path id="Path_54" data-name="Path 54" d="M72.839,359.637a2.2,2.2,0,1,1-2.2-2.2A2.2,2.2,0,0,1,72.839,359.637Z" transform="translate(-68.444 -357.44)" fill="#4d4d4d"/>
    </g>
    <g id="Group_114" data-name="Group 114" transform="translate(37.173 376.635)">
      <rect id="Rectangle_37" data-name="Rectangle 37" width="93.368" height="64.13" rx="1.475" fill="#15a0c9"/>
    </g>
    <g id="Group_115" data-name="Group 115" transform="translate(42.563 381.881)">
      <path id="Rectangle_38" data-name="Rectangle 38" d="M1.476,0H81.114a1.475,1.475,0,0,1,1.475,1.475v50.9a1.475,1.475,0,0,1-1.475,1.475H1.474A1.474,1.474,0,0,1,0,52.378V1.476A1.476,1.476,0,0,1,1.476,0Z" fill="#fff"/>
    </g>
    <g id="Group_143" data-name="Group 143" transform="translate(62.523 393.348)">
      <g id="Group_132" data-name="Group 132" transform="translate(0 0)">
        <g id="Group_129" data-name="Group 129" transform="translate(4.181)">
          <g id="Group_128" data-name="Group 128">
            <path id="Path_66" data-name="Path 66" d="M57.931,394.209a5.453,5.453,0,1,0,5.454-5.453A5.453,5.453,0,0,0,57.931,394.209Z" transform="translate(-57.931 -388.756)" fill="#7f8c8d"/>
          </g>
        </g>
        <g id="Group_131" data-name="Group 131" transform="translate(0 12.118)">
          <g id="Group_130" data-name="Group 130">
            <path id="Path_67" data-name="Path 67" d="M54.992,413.774h19.27c-.862-9.392-4.85-16.5-9.634-16.5S55.856,404.382,54.992,413.774Z" transform="translate(-54.992 -397.274)" fill="#7f8c8d"/>
          </g>
        </g>
      </g>
      <g id="Group_137" data-name="Group 137" transform="translate(22.565 0)">
        <g id="Group_134" data-name="Group 134" transform="translate(4.181)">
          <g id="Group_133" data-name="Group 133">
            <path id="Path_68" data-name="Path 68" d="M73.792,394.209a5.453,5.453,0,1,0,5.454-5.453A5.452,5.452,0,0,0,73.792,394.209Z" transform="translate(-73.792 -388.756)" fill="#7f8c8d"/>
          </g>
        </g>
        <g id="Group_136" data-name="Group 136" transform="translate(0 12.118)">
          <g id="Group_135" data-name="Group 135">
            <path id="Path_69" data-name="Path 69" d="M70.853,413.774h19.27c-.862-9.392-4.85-16.5-9.634-16.5S71.715,404.382,70.853,413.774Z" transform="translate(-70.853 -397.274)" fill="#7f8c8d"/>
          </g>
        </g>
      </g>
      <g id="Group_142" data-name="Group 142" transform="translate(11.369 2.188)">
        <g id="Group_139" data-name="Group 139" transform="translate(4.18)">
          <g id="Group_138" data-name="Group 138">
            <path id="Path_70" data-name="Path 70" d="M65.921,395.75a5.454,5.454,0,1,0,5.456-5.456A5.454,5.454,0,0,0,65.921,395.75Z" transform="translate(-65.921 -390.294)" fill="#e8721b"/>
          </g>
        </g>
        <g id="Group_141" data-name="Group 141" transform="translate(0 12.12)">
          <g id="Group_140" data-name="Group 140">
            <path id="Path_71" data-name="Path 71" d="M62.983,415.313H82.252c-.862-9.392-4.848-16.5-9.633-16.5S63.845,405.921,62.983,415.313Z" transform="translate(-62.983 -398.813)" fill="#e8721b"/>
          </g>
        </g>
      </g>
    </g>
  </g>
</svg>
