<svg xmlns="http://www.w3.org/2000/svg" width="112.278" height="59.321" viewBox="0 0 112.278 59.321">
  <g id="Group_370" data-name="Group 370" transform="translate(-343.117 -161.15)">
    <g id="Group_60" data-name="Group 60" transform="translate(355.341 213.066)">
      <path id="Rectangle_26" data-name="Rectangle 26" d="M1.836,0H86A1.835,1.835,0,0,1,87.83,1.835V5.569A1.836,1.836,0,0,1,85.995,7.4H1.835A1.835,1.835,0,0,1,0,5.57V1.836A1.836,1.836,0,0,1,1.836,0Z" fill="#bdc3c7"/>
    </g>
    <g id="Group_75" data-name="Group 75" transform="translate(434.42 165.411)">
      <g id="Group_73" data-name="Group 73">
        <g id="Group_61" data-name="Group 61" transform="translate(0.609 7.53)">
          <path id="Rectangle_27" data-name="Rectangle 27" d="M1.5,0H8.169a1.5,1.5,0,0,1,1.5,1.5V38.01a1.5,1.5,0,0,1-1.5,1.5H1.5a1.5,1.5,0,0,1-1.5-1.5V1.5A1.5,1.5,0,0,1,1.5,0Z" fill="#4dbfd9"/>
        </g>
        <g id="Group_62" data-name="Group 62" transform="translate(2.241 22.791)">
          <path id="Path_30" data-name="Path 30" d="M413.761,179.725v20.414a1.457,1.457,0,0,1-1.458,1.455h-3.511a1.451,1.451,0,0,1-1.443-1.455V179.725Z" transform="translate(-407.349 -179.725)" fill="#e2421e"/>
        </g>
        <g id="Group_63" data-name="Group 63">
          <path id="Rectangle_28" data-name="Rectangle 28" d="M1.5,0H9.389a1.5,1.5,0,0,1,1.5,1.5V17.825a1.5,1.5,0,0,1-1.5,1.5H1.5a1.5,1.5,0,0,1-1.5-1.5V1.5A1.5,1.5,0,0,1,1.5,0Z" fill="#1c90bf"/>
        </g>
        <g id="Group_64" data-name="Group 64" transform="translate(0.608 7.948)">
          <path id="Path_31" data-name="Path 31" d="M407.361,179.1a.566.566,0,0,1-.567.565h0a.565.565,0,0,1-.566-.565v-9a.565.565,0,0,1,.566-.567h0a.566.566,0,0,1,.567.567Z" transform="translate(-406.228 -169.533)" fill="#4dbfd9"/>
        </g>
        <g id="Group_65" data-name="Group 65" transform="translate(2.679 7.948)">
          <path id="Path_32" data-name="Path 32" d="M408.783,179.1a.566.566,0,0,1-.568.565h0a.565.565,0,0,1-.565-.565v-9a.565.565,0,0,1,.565-.567h0a.567.567,0,0,1,.568.567Z" transform="translate(-407.65 -169.533)" fill="#4dbfd9"/>
        </g>
        <g id="Group_66" data-name="Group 66" transform="translate(4.748 7.948)">
          <path id="Path_33" data-name="Path 33" d="M410.206,179.1a.566.566,0,0,1-.568.565h0a.566.566,0,0,1-.566-.565v-9a.566.566,0,0,1,.566-.567h0a.567.567,0,0,1,.568.567Z" transform="translate(-409.071 -169.533)" fill="#4dbfd9"/>
        </g>
        <g id="Group_67" data-name="Group 67" transform="translate(6.818 7.948)">
          <path id="Path_34" data-name="Path 34" d="M411.626,179.1a.568.568,0,0,1-.566.565h0a.567.567,0,0,1-.568-.565v-9a.567.567,0,0,1,.568-.567h0a.568.568,0,0,1,.566.567Z" transform="translate(-410.492 -169.533)" fill="#4dbfd9"/>
        </g>
        <g id="Group_68" data-name="Group 68" transform="translate(8.889 7.948)">
          <path id="Path_35" data-name="Path 35" d="M413.047,179.1a.565.565,0,0,1-.566.565h0a.564.564,0,0,1-.567-.565v-9a.564.564,0,0,1,.567-.567h0a.565.565,0,0,1,.566.567Z" transform="translate(-411.914 -169.533)" fill="#4dbfd9"/>
        </g>
        <g id="Group_69" data-name="Group 69" transform="translate(3.247 21.511)">
          <path id="Path_36" data-name="Path 36" d="M415.073,178.846V189.7h-4.844a2.189,2.189,0,0,1-2.189-2.187v-6.478a2.089,2.089,0,0,1,.2-.907,2.181,2.181,0,0,1,1.992-1.28Z" transform="translate(-408.04 -178.846)" fill="#fff"/>
        </g>
        <g id="Group_70" data-name="Group 70" transform="translate(4.747 23.437)">
          <path id="Path_37" data-name="Path 37" d="M414.6,180.169v.786h-5.139a.393.393,0,0,1,0-.786Z" transform="translate(-409.07 -180.169)" fill="gray"/>
        </g>
        <g id="Group_71" data-name="Group 71" transform="translate(4.747 26.657)">
          <path id="Path_38" data-name="Path 38" d="M414.6,182.38v.788h-5.139a.4.4,0,0,1-.393-.395.392.392,0,0,1,.393-.393Z" transform="translate(-409.07 -182.38)" fill="gray"/>
        </g>
        <g id="Group_72" data-name="Group 72" transform="translate(4.747 29.877)">
          <path id="Path_39" data-name="Path 39" d="M414.6,184.591v.788h-5.139a.394.394,0,0,1,0-.788Z" transform="translate(-409.07 -184.591)" fill="gray"/>
        </g>
      </g>
      <g id="Group_74" data-name="Group 74" transform="translate(2.679 2.594)">
        <path id="Path_40" data-name="Path 40" d="M415.251,167.291a1.433,1.433,0,0,1-1.43,1.434h-4.737a1.433,1.433,0,0,1-1.433-1.434h0a1.433,1.433,0,0,1,1.433-1.435h4.737a1.433,1.433,0,0,1,1.43,1.435Z" transform="translate(-407.65 -165.857)" fill="#fff"/>
      </g>
    </g>
    <g id="Group_85" data-name="Group 85" transform="translate(351.37 161.693)">
      <g id="Group_78" data-name="Group 78" transform="translate(1.388 7.12)">
        <g id="Group_77" data-name="Group 77">
          <g id="Group_76" data-name="Group 76">
            <path id="Path_41" data-name="Path 41" d="M381.311,168.885v39.3a2.488,2.488,0,0,1-2.482,2.485H352.22a2.492,2.492,0,0,1-2.483-2.485v-39.3a2.484,2.484,0,0,1,2.483-2.473h26.609a2.486,2.486,0,0,1,2.482,2.473Z" transform="translate(-349.737 -166.412)" fill="#4dbfd9"/>
          </g>
        </g>
      </g>
      <g id="Group_81" data-name="Group 81">
        <g id="Group_80" data-name="Group 80">
          <g id="Group_79" data-name="Group 79">
            <path id="Rectangle_29" data-name="Rectangle 29" d="M1.7,0H32.648a1.7,1.7,0,0,1,1.7,1.7V14.391a1.7,1.7,0,0,1-1.7,1.7H1.7a1.7,1.7,0,0,1-1.7-1.7V1.7A1.7,1.7,0,0,1,1.7,0Z" fill="#e2421e"/>
          </g>
        </g>
      </g>
      <g id="Group_84" data-name="Group 84" transform="translate(3.561 35.277)">
        <g id="Group_83" data-name="Group 83">
          <g id="Group_82" data-name="Group 82">
            <path id="Rectangle_30" data-name="Rectangle 30" d="M1.7,0H25.529a1.7,1.7,0,0,1,1.7,1.7V12.123a1.7,1.7,0,0,1-1.7,1.7H1.7a1.7,1.7,0,0,1-1.7-1.7V1.7A1.7,1.7,0,0,1,1.7,0Z" fill="#f0851d"/>
          </g>
        </g>
      </g>
    </g>
    <g id="Group_86" data-name="Group 86" transform="translate(352.758 181.635)">
      <path id="Path_42" data-name="Path 42" d="M368.25,177.4v14.364a2.194,2.194,0,0,1-2.187,2.187H349.737V175.216h16.326A2.2,2.2,0,0,1,368.25,177.4Z" transform="translate(-349.737 -175.216)" fill="#fff"/>
    </g>
    <g id="Group_87" data-name="Group 87" transform="translate(352.758 184.556)">
      <path id="Path_43" data-name="Path 43" d="M365.524,177.943a.73.73,0,0,1-.731.733H349.737v-1.453h15.056A.729.729,0,0,1,365.524,177.943Z" transform="translate(-349.737 -177.222)" fill="gray"/>
    </g>
    <g id="Group_88" data-name="Group 88" transform="translate(352.758 188.933)">
      <path id="Path_44" data-name="Path 44" d="M365.524,180.948a.731.731,0,0,1-.731.734H349.737v-1.455h15.056A.729.729,0,0,1,365.524,180.948Z" transform="translate(-349.737 -180.227)" fill="gray"/>
    </g>
    <g id="Group_89" data-name="Group 89" transform="translate(352.758 193.066)">
      <path id="Path_45" data-name="Path 45" d="M360.055,183.8a.733.733,0,0,1-.733.733h-9.586v-1.468h9.586A.734.734,0,0,1,360.055,183.8Z" transform="translate(-349.737 -183.065)" fill="gray"/>
    </g>
    <g id="Group_92" data-name="Group 92" transform="translate(393.151 168.269)">
      <g id="Group_91" data-name="Group 91">
        <g id="Group_90" data-name="Group 90">
          <path id="Rectangle_31" data-name="Rectangle 31" d="M1.7,0H29.864a1.7,1.7,0,0,1,1.7,1.7v40.85a1.7,1.7,0,0,1-1.7,1.7H1.7a1.7,1.7,0,0,1-1.7-1.7V1.7A1.7,1.7,0,0,1,1.7,0Z" fill="#4dbfd9"/>
        </g>
      </g>
    </g>
    <g id="Group_95" data-name="Group 95" transform="translate(391.76 161.15)">
      <g id="Group_94" data-name="Group 94">
        <g id="Group_93" data-name="Group 93">
          <path id="Rectangle_32" data-name="Rectangle 32" d="M1.7,0H32.649a1.7,1.7,0,0,1,1.7,1.7V14.391a1.7,1.7,0,0,1-1.7,1.7H1.7a1.7,1.7,0,0,1-1.7-1.7V1.7A1.7,1.7,0,0,1,1.7,0Z" fill="#f0851d"/>
        </g>
      </g>
    </g>
    <g id="Group_98" data-name="Group 98" transform="translate(395.537 187.762)">
      <g id="Group_97" data-name="Group 97">
        <g id="Group_96" data-name="Group 96">
          <path id="Path_46" data-name="Path 46" d="M406.435,199.436a2.479,2.479,0,0,1-2.476,2.477H381.678a2.477,2.477,0,0,1-2.474-2.477,12.771,12.771,0,0,1,.719-5.965,1.5,1.5,0,0,1,1.436-1.024s-.415.047-.958-1.194c-1.937-4.429,3.331-7.707,7.454-11.83,1.236,18.257,11.914,3.715,18.58,15.627Z" transform="translate(-379.111 -179.423)" fill="#663f30"/>
        </g>
      </g>
    </g>
    <g id="Group_101" data-name="Group 101" transform="translate(403.427 196.114)">
      <g id="Group_100" data-name="Group 100">
        <g id="Group_99" data-name="Group 99">
          <path id="Path_47" data-name="Path 47" d="M396.519,192.59s-1.545-2.477-6.184-3.095-5.421-2.568-5.421-4.333c0-.154-1.547,4.333,1.55,6.035S394.358,190.577,396.519,192.59Z" transform="translate(-384.529 -185.158)" fill="#582a1a"/>
        </g>
      </g>
    </g>
    <g id="Group_102" data-name="Group 102" transform="translate(396.762 181.092)">
      <path id="Rectangle_33" data-name="Rectangle 33" d="M1.5,0H20.938a1.5,1.5,0,0,1,1.5,1.5V18.721a1.5,1.5,0,0,1-1.5,1.5H1.5A1.5,1.5,0,0,1,0,18.72V1.5A1.5,1.5,0,0,1,1.5,0Z" fill="#fff"/>
    </g>
    <g id="Group_103" data-name="Group 103" transform="translate(399.651 184.741)">
      <path id="Path_48" data-name="Path 48" d="M399.39,178.124a.776.776,0,0,1-.776.773h-15.9a.775.775,0,0,1-.775-.773h0a.773.773,0,0,1,.775-.775h15.9a.775.775,0,0,1,.776.775Z" transform="translate(-381.936 -177.349)" fill="gray"/>
    </g>
    <g id="Group_104" data-name="Group 104" transform="translate(399.651 189.297)">
      <path id="Path_49" data-name="Path 49" d="M399.39,181.252a.777.777,0,0,1-.776.775h-15.9a.775.775,0,0,1-.775-.775h0a.775.775,0,0,1,.775-.775h15.9a.777.777,0,0,1,.776.775Z" transform="translate(-381.936 -180.477)" fill="gray"/>
    </g>
    <g id="Group_105" data-name="Group 105" transform="translate(399.651 193.923)">
      <path id="Path_50" data-name="Path 50" d="M399.39,184.427a.776.776,0,0,1-.776.776h-15.9a.775.775,0,0,1-.775-.776h0a.774.774,0,0,1,.775-.773h15.9a.775.775,0,0,1,.776.773Z" transform="translate(-381.936 -183.654)" fill="gray"/>
    </g>
    <g id="Group_106" data-name="Group 106" transform="translate(351.37 164.628)">
      <path id="Rectangle_34" data-name="Rectangle 34" d="M1.835,0H32.513a1.835,1.835,0,0,1,1.835,1.835V8.193a1.836,1.836,0,0,1-1.836,1.836H1.835A1.835,1.835,0,0,1,0,8.194V1.835A1.835,1.835,0,0,1,1.835,0Z" fill="#f15723"/>
    </g>
    <g id="Group_107" data-name="Group 107" transform="translate(391.76 164.628)">
      <path id="Rectangle_35" data-name="Rectangle 35" d="M1.835,0H32.513a1.836,1.836,0,0,1,1.836,1.836V8.193a1.836,1.836,0,0,1-1.836,1.836H1.836A1.836,1.836,0,0,1,0,8.193V1.835A1.835,1.835,0,0,1,1.835,0Z" fill="#e8721b"/>
    </g>
    <g id="Group_108" data-name="Group 108" transform="translate(368.545 166.048)">
      <path id="Path_51" data-name="Path 51" d="M374.192,166.409a1.9,1.9,0,0,1-1.9,1.9h-9.819a1.9,1.9,0,0,1-1.9-1.9h0a1.9,1.9,0,0,1,1.9-1.9H372.3a1.9,1.9,0,0,1,1.9,1.9Z" transform="translate(-360.577 -164.513)" fill="#fff"/>
    </g>
    <g id="Group_109" data-name="Group 109" transform="translate(408.612 165.504)">
      <path id="Path_52" data-name="Path 52" d="M401.7,166.036a1.9,1.9,0,0,1-1.9,1.9h-9.817a1.9,1.9,0,0,1-1.9-1.9h0a1.9,1.9,0,0,1,1.9-1.9h9.817a1.9,1.9,0,0,1,1.9,1.9Z" transform="translate(-388.089 -164.14)" fill="#fff"/>
    </g>
    <g id="Group_110" data-name="Group 110" transform="translate(343.117 207.871)">
      <rect id="Rectangle_36" data-name="Rectangle 36" width="112.278" height="7.352" rx="1.836" fill="#95a5a6"/>
    </g>
  </g>
</svg>
