<svg xmlns="http://www.w3.org/2000/svg" width="88.29" height="43.491" viewBox="0 0 88.29 43.491">
  <g id="Group_374" data-name="Group 374" transform="translate(-282.692 -366.539)">
    <path id="Path_98167" data-name="Path 98167" d="M283.191,398.425,294.3,409.531a1.7,1.7,0,0,0,2.909-1.2V400.2h16.085a2.982,2.982,0,0,0,1.968-.742L345.944,372.5H368a2.982,2.982,0,0,0,0-5.964H344.82a2.983,2.983,0,0,0-1.968.742l-30.685,26.957H297.206v-8.124a1.7,1.7,0,0,0-2.909-1.2l-11.106,11.106A1.7,1.7,0,0,0,283.191,398.425Z" fill="#15a0c9"/>
    <path id="Path_98168" data-name="Path 98168" d="M370.482,472.922l-11.106-11.107a1.7,1.7,0,0,0-2.909,1.2v8.124H341.506l-30.685-26.957a2.982,2.982,0,0,0-1.968-.742H285.674a2.982,2.982,0,0,0,0,5.964h22.055l30.684,26.957a2.983,2.983,0,0,0,1.968.742h16.085v8.124a1.7,1.7,0,0,0,2.909,1.2l11.106-11.106A1.7,1.7,0,0,0,370.482,472.922Z" transform="translate(0 -76.907)" fill="#f0851d"/>
  </g>
</svg>
