<svg xmlns="http://www.w3.org/2000/svg" xmlns:xlink="http://www.w3.org/1999/xlink" width="74.038" height="123.846" viewBox="0 0 74.038 123.846">
  <defs>
    <linearGradient id="linear-gradient" x1="0.5" y1="1.566" x2="0.5" y2="-0.487" gradientUnits="objectBoundingBox">
      <stop offset="0" stop-color="#4dbfd9"/>
      <stop offset="1" stop-color="#8ae2cb"/>
    </linearGradient>
    <linearGradient id="linear-gradient-2" x1="0.506" y1="1.055" x2="0.488" y2="-1.001" gradientUnits="objectBoundingBox">
      <stop offset="0" stop-color="#f0851d"/>
      <stop offset="1" stop-color="#ffdc2a"/>
    </linearGradient>
    <linearGradient id="linear-gradient-3" x1="0.488" y1="0.951" x2="0.512" y2="-0.259" gradientUnits="objectBoundingBox">
      <stop offset="0" stop-color="#3f9cff"/>
      <stop offset="1" stop-color="#15a0c9"/>
    </linearGradient>
    <linearGradient id="linear-gradient-4" x1="-0.52" y1="-0.119" x2="0.915" y2="0.801" gradientUnits="objectBoundingBox">
      <stop offset="0" stop-color="#ffdc2a"/>
      <stop offset="1" stop-color="#f0851d"/>
    </linearGradient>
    <linearGradient id="linear-gradient-5" x1="0.349" y1="-0.119" x2="1.783" y2="0.801" xlink:href="#linear-gradient-4"/>
  </defs>
  <g id="Group_152" data-name="Group 152" transform="translate(-282.519 -258.686)">
    <text id="NURSING" transform="translate(282.519 358.065)" fill="#fff" font-size="16" font-family="SegoeUI-Semibold, Segoe UI" font-weight="600"><tspan x="0" y="0">NURSING</tspan></text>
    <text id="System" transform="translate(291.847 377.532)" fill="#74d5cf" font-size="17" font-family="SegoeUI, Segoe UI"><tspan x="0" y="0">System</tspan></text>
    <path id="Path_98043" data-name="Path 98043" d="M319.173,375.163H308.116c-1.629-8.032-15.711-13.034-18.85-17.107s-2.677-5.822-2.677-5.822a8.917,8.917,0,0,1-.353-5.121c-1.048-3.839.353-5.583.353-5.583s-1.282-4.654,1.048-5.241a1.932,1.932,0,0,1,.858-.033c1.754.348,2.846,3.416,5.773,8.065,3.372,5.355,10.242,7.445,10.242,7.445-1.863-3.139-1.282-5.93,1.743-4.654s8.38,6.87,10.476,12.339S319.173,375.163,319.173,375.163Z" transform="translate(-0.319 -35.429)" fill="#f0851d"/>
    <path id="Path_98044" data-name="Path 98044" d="M357.717,359.452c2.1-5.47,7.448-11.055,10.474-12.335s3.608,1.512,1.745,4.655c0,0,6.866-2.095,10.241-7.448s4.305-8.611,6.633-8.03,1.047,5.237,1.047,5.237,1.4,1.745.351,5.586a8.91,8.91,0,0,1-.351,5.12s.466,1.745-2.676,5.818-17.223,9.077-18.852,17.107H355.273S355.622,364.921,357.717,359.452Z" transform="translate(-32.042 -35.431)" fill="#f0851d"/>
    <path id="Path_98045" data-name="Path 98045" d="M353.176,308.854c-.331.733-.7,1.461-1.1,2.172-.005.005-.005.011-.011.016a31.473,31.473,0,0,1-5.235,6.854c-4.714,4.676-12.648,10.058-16.737,12.4a7.362,7.362,0,0,1-2.58,1.184c-.69.348-12.947-7.261-19.322-13.582a31.342,31.342,0,0,1-4.4-5.474c-.293-.456-.57-.912-.831-1.379-.147-.261-.293-.527-.429-.793-4.073-7.766-4.252-16.732,3.41-21.994,10.394-7.136,21.565,8.228,21.565,8.228l.011.293.005-.293s.1-.136.282-.375c1.8-2.308,11.861-14.321,21.288-7.853C356.287,293.2,356.559,301.43,353.176,308.854Z" transform="translate(-6.669 -12.647)" fill="url(#linear-gradient)"/>
    <path id="Path_98046" data-name="Path 98046" d="M353.332,265.409v6.359a25.345,25.345,0,0,0-12.974,7.994,24.342,24.342,0,0,0-12.795-7.994v-6.359s6.87-6.723,12.887-6.723C347.5,258.686,353.332,265.409,353.332,265.409Z" transform="translate(-19.38 0)" fill="#f0851d"/>
    <path id="Path_98047" data-name="Path 98047" d="M353.332,277.827v.119a25.345,25.345,0,0,0-12.974,7.994,24.342,24.342,0,0,0-12.795-7.994v-.32c2.742-3.264,7.456-5.42,12.806-5.42C345.821,272.206,350.616,274.449,353.332,277.827Z" transform="translate(-19.38 -6.178)" fill="url(#linear-gradient-2)"/>
    <path id="Path_98048" data-name="Path 98048" d="M352.139,268.192h-3.414v-3.414h-3.879v3.414h-3.414v3.879h3.414v3.414h3.879v-3.414h3.414Z" transform="translate(-25.718 -2.784)" fill="#fff"/>
    <path id="Path_98049" data-name="Path 98049" d="M354.763,323.179a31.471,31.471,0,0,1-5.235,6.854c-4.714,4.676-12.648,10.058-16.737,12.4a7.365,7.365,0,0,1-2.58,1.184c-.69.348-12.947-7.261-19.322-13.582a31.471,31.471,0,0,1-5.235-6.854,34.529,34.529,0,0,1,49.11,0Z" transform="translate(-9.369 -24.784)" fill="url(#linear-gradient-3)"/>
    <path id="Path_98050" data-name="Path 98050" d="M355.515,314.635c-.331.733-.7,1.461-1.1,2.172H343.584l-3.546,6.088-4.589-10.1-6.8,15.494-8.477-23.949L312.64,318.2h-6.517c-.293-.456-.57-.912-.831-1.379-.147-.261-.293-.527-.429-.793h6.484l9.238-17.014,8.276,23.379,6.549-14.918,4.866,10.693,2.058-3.535Z" transform="translate(-9.008 -18.428)" fill="#fff"/>
    <path id="Path_98051" data-name="Path 98051" d="M313.753,375.163h-5.637c-1.629-8.032-15.711-13.034-18.85-17.107s-2.677-5.822-2.677-5.822a8.917,8.917,0,0,1-.353-5.121c-1.048-3.839.353-5.583.353-5.583s-1.282-4.654,1.048-5.241a1.932,1.932,0,0,1,.858-.033,19.271,19.271,0,0,0,10.775,18.014C310.2,359.951,313.791,369.048,313.753,375.163Z" transform="translate(-0.319 -35.429)" fill="url(#linear-gradient-4)"/>
    <path id="Path_98052" data-name="Path 98052" d="M365.252,375.163h5.637c1.629-8.032,15.711-13.034,18.85-17.107s2.677-5.822,2.677-5.822a8.917,8.917,0,0,0,.353-5.121c1.048-3.839-.353-5.583-.353-5.583s1.282-4.654-1.048-5.241a1.932,1.932,0,0,0-.858-.033,19.271,19.271,0,0,1-10.775,18.014C368.809,359.951,365.214,369.048,365.252,375.163Z" transform="translate(-36.601 -35.429)" fill="url(#linear-gradient-5)"/>
  </g>
</svg>
