<svg xmlns="http://www.w3.org/2000/svg" xmlns:xlink="http://www.w3.org/1999/xlink" width="173.627" height="287.613" viewBox="0 0 173.627 287.613">
  <defs>
    <linearGradient id="linear-gradient" x1="0.5" y1="1.566" x2="0.5" y2="-0.487" gradientUnits="objectBoundingBox">
      <stop offset="0" stop-color="#4dbfd9"/>
      <stop offset="1" stop-color="#8ae2cb"/>
    </linearGradient>
    <linearGradient id="linear-gradient-2" x1="0.506" y1="1.055" x2="0.488" y2="-1.001" gradientUnits="objectBoundingBox">
      <stop offset="0" stop-color="#f0851d"/>
      <stop offset="1" stop-color="#ffdc2a"/>
    </linearGradient>
    <linearGradient id="linear-gradient-3" x1="0.488" y1="0.951" x2="0.512" y2="-0.259" gradientUnits="objectBoundingBox">
      <stop offset="0" stop-color="#3f9cff"/>
      <stop offset="1" stop-color="#15a0c9"/>
    </linearGradient>
    <linearGradient id="linear-gradient-4" x1="-0.52" y1="-0.119" x2="0.915" y2="0.801" gradientUnits="objectBoundingBox">
      <stop offset="0" stop-color="#ffdc2a"/>
      <stop offset="1" stop-color="#f0851d"/>
    </linearGradient>
    <linearGradient id="linear-gradient-5" x1="0.349" y1="-0.119" x2="1.783" y2="0.801" xlink:href="#linear-gradient-4"/>
  </defs>
  <g id="Group_323" data-name="Group 323" transform="translate(-282.107 -258.686)">
    <text id="NURSING" transform="translate(282.107 491.344)" fill="#0e0e0e" font-size="37" font-family="SegoeUI-Semibold, Segoe UI" font-weight="600"><tspan x="0" y="0">NURSING</tspan></text>
    <text id="System" transform="translate(304.342 536.299)" fill="#0e0e0e" font-size="39" font-family="SegoeUI, Segoe UI"><tspan x="0" y="0">System</tspan></text>
    <path id="Path_98043" data-name="Path 98043" d="M363.815,427.324H337.947c-3.812-18.791-36.756-30.493-44.1-40.022s-6.264-13.62-6.264-13.62c-2.452-5.438-.826-11.981-.826-11.981-2.452-8.983.826-13.061.826-13.061s-3-10.888,2.452-12.261a4.521,4.521,0,0,1,2.007-.076c4.1.813,6.658,7.992,13.506,18.867,7.89,12.527,23.962,17.419,23.962,17.419-4.358-7.344-3-13.874,4.078-10.888s19.6,16.072,24.509,28.867S363.815,427.324,363.815,427.324Z" transform="translate(3.712 20.976)" fill="#f0851d"/>
    <path id="Path_98044" data-name="Path 98044" d="M360.99,390.563c4.9-12.8,17.425-25.864,24.5-28.859s8.44,3.538,4.084,10.89c0,0,16.063-4.9,23.96-17.424s10.073-20.147,15.518-18.786,2.45,12.252,2.45,12.252,3.278,4.083.822,13.069c0,0,1.629,6.533-.822,11.979,0,0,1.09,4.084-6.261,13.612s-40.294,21.237-44.105,40.022H355.273S356.09,403.358,360.99,390.563Z" transform="translate(22.494 20.977)" fill="#f0851d"/>
    <path id="Path_98045" data-name="Path 98045" d="M424.751,338.979c-.775,1.715-1.639,3.418-2.579,5.082-.013.013-.013.025-.025.038A73.631,73.631,0,0,1,409.9,360.134c-11.028,10.939-29.591,23.53-39.158,29.006-3.367,1.931-5.616,2.986-6.035,2.77-1.614.813-30.289-16.987-45.205-31.776a73.323,73.323,0,0,1-10.3-12.807c-.686-1.067-1.334-2.134-1.944-3.227-.343-.61-.686-1.232-1-1.855-9.529-18.169-9.948-39.145,7.979-51.457,24.318-16.695,50.453,19.249,50.453,19.249l.025.686.013-.686s.229-.318.661-.877c4.218-5.4,27.748-33.5,49.8-18.372C432.031,302.363,432.666,321.611,424.751,338.979Z" transform="translate(7.472 7.488)" fill="url(#linear-gradient)"/>
    <path id="Path_98046" data-name="Path 98046" d="M387.85,274.415v14.878A59.3,59.3,0,0,0,357.5,308a56.949,56.949,0,0,0-29.934-18.7V274.415s16.072-15.729,30.15-15.729C374.217,258.686,387.85,274.415,387.85,274.415Z" transform="translate(14.998 0)" fill="#f0851d"/>
    <path id="Path_98047" data-name="Path 98047" d="M387.85,285.356v.279a59.3,59.3,0,0,0-30.353,18.7,56.948,56.948,0,0,0-29.934-18.7v-.75c6.416-7.636,17.444-12.68,29.959-12.68C370.278,272.206,381.5,277.453,387.85,285.356Z" transform="translate(14.998 3.657)" fill="url(#linear-gradient-2)"/>
    <path id="Path_98048" data-name="Path 98048" d="M366.48,272.765h-7.986v-7.986h-9.075v7.986h-7.986v9.075h7.986v7.986h9.075V281.84h7.986Z" transform="translate(18.75 1.648)" fill="#fff"/>
    <path id="Path_98049" data-name="Path 98049" d="M420.547,336.914A73.627,73.627,0,0,1,408.3,352.948c-11.028,10.939-29.591,23.53-39.158,29.006-3.367,1.931-5.616,2.986-6.035,2.77-1.614.813-30.289-16.987-45.206-31.776a73.628,73.628,0,0,1-12.248-16.034,80.782,80.782,0,0,1,114.894,0Z" transform="translate(9.071 14.674)" fill="url(#linear-gradient-3)"/>
    <path id="Path_98050" data-name="Path 98050" d="M423.365,335.556c-.775,1.715-1.639,3.418-2.579,5.082H395.452l-8.3,14.243-10.736-23.619L360.5,367.51l-19.833-56.03L323.057,343.9H307.811c-.686-1.067-1.334-2.135-1.944-3.227-.343-.61-.686-1.232-1-1.855h15.17l21.612-39.806,19.363,54.7,15.322-34.9,11.384,25.017,4.815-8.271Z" transform="translate(8.857 10.91)" fill="#fff"/>
    <path id="Path_98051" data-name="Path 98051" d="M351.135,427.324H337.947c-3.812-18.791-36.756-30.493-44.1-40.022s-6.264-13.62-6.264-13.62c-2.452-5.438-.826-11.981-.826-11.981-2.452-8.983.826-13.061.826-13.061s-3-10.888,2.452-12.261a4.521,4.521,0,0,1,2.007-.076c-.241,7.166,1.055,29.578,25.207,42.143C342.813,391.736,351.224,413.017,351.135,427.324Z" transform="translate(3.712 20.976)" fill="url(#linear-gradient-4)"/>
    <path id="Path_98052" data-name="Path 98052" d="M365.252,427.324H378.44c3.812-18.791,36.757-30.493,44.1-40.022s6.264-13.62,6.264-13.62c2.452-5.438.826-11.981.826-11.981,2.452-8.983-.826-13.061-.826-13.061s3-10.888-2.452-12.261a4.521,4.521,0,0,0-2.008-.076c.242,7.166-1.055,29.578-25.207,42.143C373.574,391.736,365.163,413.017,365.252,427.324Z" transform="translate(25.194 20.976)" fill="url(#linear-gradient-5)"/>
  </g>
</svg>
