<svg id="Group_305" data-name="Group 305" xmlns="http://www.w3.org/2000/svg" width="58" height="58" viewBox="0 0 58 58">
  <circle id="Ellipse_32" data-name="Ellipse 32" cx="29" cy="29" r="29" fill="#cfe7df"/>
  <g id="svgexport-17_-_2024-02-25T150348.466" data-name="svgexport-17 - 2024-02-25T150348.466" transform="translate(10 16)">
    <path id="Path_98147" data-name="Path 98147" d="M32.435,24.565a18.927,18.927,0,0,0-7.22-4.529,10.984,10.984,0,1,0-12.43,0A19.03,19.03,0,0,0,0,38H2.969a16.031,16.031,0,0,1,32.063,0H38a18.876,18.876,0,0,0-5.565-13.435ZM19,19a8.016,8.016,0,1,1,8.016-8.016A8.025,8.025,0,0,1,19,19Z" transform="translate(0)" fill="#fff"/>
  </g>
</svg>
